<svg width="1200" height="630" viewBox="0 0 1200 630" fill="none" xmlns="http://www.w3.org/2000/svg">
  <!-- Background -->
  <rect width="1200" height="630" fill="#0F1115"/>
  
  <!-- Subtle Grid -->
  <path d="M0 60H1200M0 120H1200M0 180H1200M0 240H1200M0 300H1200M0 360H1200M0 420H1200M0 480H1200M0 540H1200M0 600H1200" stroke="#1E232B" stroke-width="1"/>
  <path d="M60 0V630M120 0V630M180 0V630M240 0V630M300 0V630M360 0V630M420 0V630M480 0V630M540 0V630M600 0V630M660 0V630M720 0V630M780 0V630M840 0V630M900 0V630M960 0V630M1020 0V630M1080 0V630M1140 0V630" stroke="#1E232B" stroke-width="1"/>

  <!-- Connections -->
  <g opacity="0.4">
    <path d="M600 315L850 150" stroke="#00D1FF" stroke-width="2" stroke-dasharray="8 4"/>
    <path d="M600 315L850 480" stroke="#00D1FF" stroke-width="2" stroke-dasharray="8 4"/>
    <path d="M600 315L350 150" stroke="#00D1FF" stroke-width="2" stroke-dasharray="8 4"/>
    <path d="M600 315L350 480" stroke="#00D1FF" stroke-width="2" stroke-dasharray="8 4"/>
  </g>

  <!-- Central Agent Core -->
  <circle cx="600" cy="315" r="80" fill="url(#agentGradient)" filter="url(#glow)"/>
  <text x="600" y="325" font-family="Arial, sans-serif" font-weight="bold" font-size="24" fill="white" text-anchor="middle">AGENT</text>
  
  <!-- Outer Nodes -->
  <!-- Jira -->
  <circle cx="850" cy="150" r="45" fill="#2D313D" stroke="#00D1FF" stroke-width="2"/>
  <text x="850" y="155" font-family="Arial, sans-serif" font-size="14" fill="#00D1FF" text-anchor="middle">Jira</text>

  <!-- Figma -->
  <circle cx="850" cy="480" r="45" fill="#2D313D" stroke="#00D1FF" stroke-width="2"/>
  <text x="850" y="485" font-family="Arial, sans-serif" font-size="14" fill="#00D1FF" text-anchor="middle">Figma</text>

  <!-- IDE -->
  <circle cx="350" cy="150" r="45" fill="#2D313D" stroke="#00D1FF" stroke-width="2"/>
  <text x="350" y="155" font-family="Arial, sans-serif" font-size="14" fill="#00D1FF" text-anchor="middle">IDE</text>

  <!-- Ops -->
  <circle cx="350" cy="480" r="45" fill="#2D313D" stroke="#00D1FF" stroke-width="2"/>
  <text x="350" y="485" font-family="Arial, sans-serif" font-size="14" fill="#00D1FF" text-anchor="middle">Ops</text>

  <!-- Title Text -->
  <text x="600" y="100" font-family="Arial, sans-serif" font-weight="bold" font-size="32" fill="white" text-anchor="middle">BUILDING A SYSTEM</text>
  <text x="600" y="550" font-family="Arial, sans-serif" font-size="24" fill="#9D00FF" text-anchor="middle">Agentic Workflow for Engineering</text>

  <defs>
    <linearGradient id="agentGradient" x1="600" y1="235" x2="600" y2="395" gradientUnits="userSpaceOnUse">
      <stop stop-color="#00D1FF"/>
      <stop offset="1" stop-color="#9D00FF"/>
    </linearGradient>
    <filter id="glow" x="480" y="195" width="240" height="240" filterUnits="userSpaceOnUse" color-interpolation-filters="sRGB">
      <feFlood flood-opacity="0" result="BackgroundImageFix"/>
      <feColorMatrix in="SourceAlpha" type="matrix" values="0 0 0 0 0 0 0 0 0 0 0 0 0 0 0 0 0 0 127 0" result="hardAlpha"/>
      <feOffset/>
      <feGaussianBlur stdDeviation="15"/>
      <feComposite in2="hardAlpha" operator="out"/>
      <feColorMatrix type="matrix" values="0 0 0 0 0 0 0 0 0 0.82 0 0 0 0 1 0 0 0 0.5 0"/>
      <feBlend mode="normal" in2="BackgroundImageFix" result="effect1_dropShadow"/>
      <feBlend mode="normal" in="SourceGraphic" in2="effect1_dropShadow" result="shape"/>
    </filter>
  </defs>
</svg>